<?xml version="1.0" standalone="no"?>
<!DOCTYPE svg PUBLIC "-//W3C//DTD SVG 20010904//EN"
 "http://www.w3.org/TR/2001/REC-SVG-20010904/DTD/svg10.dtd">
<svg version="1.0" xmlns="http://www.w3.org/2000/svg"
 width="500.000000pt" height="500.000000pt" viewBox="0 0 500.000000 500.000000"
 preserveAspectRatio="xMidYMid meet">

<g transform="translate(0.000000,500.000000) scale(0.100000,-0.100000)"
fill="#000000" stroke="none">
<path d="M3324 4489 l-171 -171 -85 51 c-46 28 -102 57 -124 66 -21 9 -48 20
-59 25 -139 60 -391 85 -558 56 -132 -24 -188 -42 -312 -102 -149 -72 -240
-142 -351 -269 -71 -82 -132 -176 -169 -260 -14 -33 -30 -69 -35 -80 -5 -11
-19 -58 -32 -105 -20 -75 -23 -108 -23 -280 0 -132 5 -209 14 -239 l13 -45
168 170 167 169 12 76 c20 128 62 222 149 331 179 225 474 323 754 252 34 -9
69 -20 77 -24 9 -4 39 -18 68 -31 29 -13 52 -26 53 -29 0 -3 -365 -369 -811
-814 l-811 -809 127 -127 128 -128 169 169 c93 93 175 169 182 169 6 0 20 -6
31 -14 151 -105 397 -176 612 -176 113 0 142 4 288 43 196 51 367 155 510 309
138 149 214 292 276 523 19 68 19 379 0 460 l-13 60 -169 -170 c-165 -166
-169 -172 -175 -220 -31 -252 -219 -492 -451 -578 -127 -47 -155 -52 -278 -51
-82 0 -139 6 -180 18 -94 27 -175 64 -175 79 0 5 223 230 495 500 597 592 719
714 940 942 l171 174 -126 126 -125 125 -171 -171z"/>
<path d="M660 1750 c-135 -29 -219 -168 -208 -345 9 -133 80 -236 185 -266 72
-21 188 -16 244 10 101 48 151 132 157 264 8 159 -46 268 -158 316 -58 25
-155 34 -220 21z m171 -123 c73 -49 102 -140 79 -251 -24 -119 -127 -177 -234
-132 -110 46 -140 271 -48 359 55 52 145 63 203 24z"/>
<path d="M1786 1746 c-30 -8 -62 -27 -84 -49 -32 -33 -36 -43 -40 -99 -7 -108
41 -154 200 -194 102 -26 135 -44 144 -78 14 -57 -47 -101 -133 -94 -61 5 -96
31 -114 85 -9 29 -15 34 -33 29 -11 -3 -38 -6 -58 -6 -37 0 -37 -1 -31 -32 13
-71 54 -128 114 -158 79 -41 230 -34 301 13 62 42 94 143 67 214 -24 65 -81
101 -213 134 -48 12 -98 30 -111 41 -52 41 -17 89 70 96 64 5 101 -13 117 -59
9 -28 13 -29 69 -29 57 0 59 1 59 25 0 28 -23 79 -49 109 -47 54 -179 79 -275
52z"/>
<path d="M1120 1700 l0 -49 144 -3 144 -3 -164 -198 -164 -198 0 -60 0 -59
250 0 250 0 0 50 0 50 -179 2 -179 3 169 205 169 204 0 53 0 53 -220 0 -220 0
0 -50z"/>
<path d="M2180 1739 c0 -10 122 -534 136 -587 6 -21 11 -23 72 -20 l66 3 60
227 c33 125 62 226 64 224 1 -2 25 -89 53 -192 27 -104 54 -206 60 -226 l10
-38 64 0 c52 0 65 3 69 18 5 16 30 120 102 422 19 80 37 153 40 163 5 16 -1
18 -57 15 l-63 -3 -45 -207 c-24 -114 -47 -205 -50 -202 -3 3 -29 96 -57 207
l-50 202 -75 0 -74 0 -54 -207 c-30 -115 -56 -206 -58 -204 -4 3 -93 402 -93
413 0 2 -27 3 -60 3 -37 0 -60 -4 -60 -11z"/>
<path d="M3040 1440 l0 -310 235 0 235 0 0 50 0 50 -170 0 -170 0 0 90 0 90
150 0 150 0 0 50 0 50 -150 0 -150 0 0 70 0 70 165 0 165 0 0 50 0 50 -230 0
-230 0 0 -310z"/>
<path d="M3620 1440 l0 -310 215 0 215 0 0 50 0 50 -155 0 -155 0 0 260 0 260
-60 0 -60 0 0 -310z"/>
<path d="M4140 1440 l0 -310 215 0 215 0 0 50 0 50 -155 0 -155 0 0 260 0 260
-60 0 -60 0 0 -310z"/>
<path d="M510 515 c0 -168 1 -175 20 -175 19 0 20 7 20 175 0 168 -1 175 -20
175 -19 0 -20 -7 -20 -175z"/>
<path d="M1500 635 c0 -30 -2 -55 -5 -55 -3 0 -17 7 -31 17 -20 13 -33 14 -62
7 -98 -24 -114 -201 -22 -249 39 -20 62 -19 94 6 l26 20 0 -20 c0 -14 6 -21
20 -21 19 0 20 7 20 175 0 168 -1 175 -20 175 -18 0 -20 -7 -20 -55z m-21 -91
c46 -58 14 -164 -49 -164 -40 0 -70 41 -70 95 0 54 30 95 70 95 19 0 36 -9 49
-26z"/>
<path d="M3500 670 c0 -13 7 -20 20 -20 13 0 20 7 20 20 0 13 -7 20 -20 20
-13 0 -20 -7 -20 -20z"/>
<path d="M2793 673 c-7 -2 -13 -20 -13 -39 0 -24 -5 -34 -15 -34 -8 0 -15 -9
-15 -20 0 -11 7 -20 15 -20 12 0 15 -16 15 -88 0 -102 14 -132 61 -132 22 0
29 5 29 19 0 13 -8 21 -22 23 -22 3 -23 8 -26 91 -3 82 -2 87 18 87 13 0 20 7
20 20 0 13 -7 20 -20 20 -17 0 -20 7 -20 40 0 40 -3 43 -27 33z"/>
<path d="M930 603 c-8 -3 -23 -12 -32 -21 -16 -14 -18 -13 -18 1 0 10 -8 17
-20 17 -19 0 -20 -7 -20 -130 0 -121 1 -130 19 -130 17 0 19 10 23 94 4 106
20 136 69 136 46 0 59 -31 59 -137 0 -86 1 -93 20 -93 19 0 20 7 20 100 0 54
-5 110 -11 123 -17 37 -67 55 -109 40z"/>
<path d="M2344 596 c-36 -16 -50 -53 -32 -90 9 -20 26 -31 80 -46 50 -16 68
-25 68 -38 0 -46 -75 -59 -107 -19 -17 22 -53 26 -53 6 0 -63 129 -90 181 -38
11 11 19 33 19 54 0 41 -21 58 -92 75 -57 15 -76 33 -58 55 19 22 76 19 93 -5
15 -22 47 -18 47 5 0 40 -91 66 -146 41z"/>
<path d="M3183 595 c-13 -9 -23 -11 -23 -6 0 6 -9 11 -20 11 -19 0 -20 -7 -20
-130 0 -128 0 -130 23 -130 21 0 22 3 22 99 1 113 11 136 58 127 25 -5 28 -3
25 17 -4 27 -35 33 -65 12z"/>
<path d="M3883 594 c-61 -30 -83 -142 -40 -208 39 -59 161 -57 192 4 14 26 13
29 -3 32 -9 2 -27 -6 -39 -19 -30 -31 -77 -30 -108 2 -47 46 -36 55 70 55 95
0 95 0 95 25 0 48 -27 95 -64 110 -44 19 -63 19 -103 -1z m106 -50 c12 -15 21
-31 21 -35 0 -5 -34 -9 -75 -9 -41 0 -75 4 -75 9 0 4 9 20 21 35 15 19 30 26
54 26 24 0 39 -7 54 -26z"/>
<path d="M4344 596 c-36 -16 -50 -53 -32 -90 9 -20 26 -31 80 -46 50 -16 68
-25 68 -38 0 -46 -75 -59 -107 -19 -17 22 -53 26 -53 6 0 -63 129 -90 181 -38
11 11 19 33 19 54 0 41 -21 58 -92 75 -57 15 -76 33 -58 55 19 22 76 19 93 -5
15 -22 47 -18 47 5 0 40 -91 66 -146 41z"/>
<path d="M1820 505 c0 -52 5 -105 11 -119 22 -48 98 -58 142 -19 16 15 17 14
17 -5 0 -15 6 -22 20 -22 19 0 20 7 20 130 0 121 -1 130 -19 130 -17 0 -19 -9
-23 -89 -3 -100 -20 -131 -69 -131 -45 0 -59 31 -59 132 0 81 -2 88 -20 88
-19 0 -20 -7 -20 -95z"/>
<path d="M3500 470 c0 -123 1 -130 20 -130 19 0 20 7 20 130 0 123 -1 130 -20
130 -19 0 -20 -7 -20 -130z"/>
</g>
</svg>
